# Blender v2.70 (sub 0) OBJ File: 'all.blend'
# www.blender.org
mtllib paddle.mtl
o Paddle_Circle
v -0.419086 -0.443720 1.314775
v -0.438595 -0.443720 1.316696
v -0.457354 -0.443720 1.322387
v -0.474643 -0.443720 1.331628
v -0.489796 -0.443720 1.344064
v -0.502233 -0.443720 1.359218
v -0.511474 -0.443720 1.376506
v -0.517164 -0.443720 1.395266
v -0.519086 -0.443720 1.414775
v -0.517164 -0.443720 1.434284
v -0.511474 -0.443720 1.453043
v -0.502233 -0.443720 1.470332
v -0.489796 -0.443720 1.485485
v -0.474643 -0.443720 1.497922
v -0.457354 -0.443720 1.507163
v -0.438595 -0.443720 1.512853
v -0.419086 -0.443720 1.514775
v -0.119086 -0.443720 1.414775
v -0.119086 -0.443720 1.414775
v -0.399577 -0.443720 1.316696
v -0.419086 -0.197720 1.314775
v -0.438595 -0.197720 1.316696
v -0.457354 -0.197720 1.322387
v -0.474643 -0.197720 1.331628
v -0.489796 -0.197720 1.344064
v -0.502233 -0.197720 1.359218
v -0.511474 -0.197720 1.376506
v -0.517164 -0.197720 1.395266
v -0.519086 -0.197720 1.414775
v -0.517164 -0.197720 1.434284
v -0.511474 -0.197720 1.453043
v -0.502233 -0.197720 1.470332
v -0.489796 -0.197720 1.485485
v -0.474643 -0.197720 1.497922
v -0.457354 -0.197720 1.507163
v -0.438595 -0.197720 1.512853
v -0.419086 -0.197720 1.514775
v -0.119086 -0.197720 1.414775
v -0.119086 -0.197720 1.414775
v -0.399577 -0.197720 1.316696
vt 0.731566 0.440885
vt 0.721362 0.416374
vt 0.815776 0.508019
vt 0.532333 0.491981
vt 0.688415 0.531271
vt 0.451861 0.685284
vt 0.314351 0.485746
vt 0.314351 0.815078
vt 0.287973 0.815078
vt 0.000000 0.000000
vt 0.259971 0.485746
vt 0.259971 0.815078
vt 0.231420 0.815078
vt 0.358278 0.362156
vt 0.000000 0.362156
vt 0.203418 0.485746
vt 0.203418 0.815078
vt 0.177041 0.815078
vt 0.153302 0.485746
vt 0.153302 0.815078
vt 0.133113 0.815078
vt 0.358278 0.414052
vt 0.716557 0.414052
vt 0.716557 0.439720
vt 0.358278 0.464043
vt 0.000000 0.464043
vt 0.000000 0.439877
vt 0.358278 0.463827
vt 0.716557 0.463827
vt 0.716557 0.485448
vt 0.358278 0.414179
vt 0.000000 0.414179
vt 0.000000 0.387936
vt 0.338090 0.485746
vt 0.338090 0.815078
vt 0.287973 0.485746
vt 0.358278 0.387936
vt 0.231420 0.485746
vt 0.358278 0.000000
vt 0.716557 0.000000
vt 0.177041 0.485746
vt 0.358278 0.485746
vt 0.000000 0.485746
vt 0.358278 0.439720
vt 0.358278 0.439877
vt 0.358278 0.815078
vt 0.723664 0.338679
vt 0.735304 0.314716
vt 0.717334 0.364270
vt 0.988360 0.447313
vt 1.000000 0.423349
vt 0.971858 0.468729
vt 0.951127 0.486775
vt 0.900300 0.510135
vt 0.872156 0.514552
vt 0.926965 0.500756
vt 0.843616 0.513838
vt 0.789706 0.497320
vt 0.766407 0.482151
vt 0.746776 0.463095
vt 0.643522 0.499244
vt 0.667684 0.513225
vt 1.000000 0.000000
vt 0.433114 0.609496
vt 0.433891 0.635730
vt 0.716557 0.390505
vt 0.448123 0.559115
vt 0.463333 0.536905
vt 0.482964 0.517850
vt 0.506263 0.502680
vt 0.560173 0.486162
vt 0.588713 0.485448
vt 0.616857 0.489865
vt 0.716557 0.576651
vt 0.704917 0.552687
vt 0.716557 1.000000
vt 0.437919 0.583626
vt 0.440221 0.661321
vt 0.133113 0.485746
vt 0.358278 0.485448
vn 0.000000 -1.000000 0.000000
vn 0.000000 1.000000 0.000000
vn -0.881922 0.000000 0.471395
vn 0.000000 0.000000 1.000000
vn -0.995185 0.000000 0.098014
vn 0.330070 0.000000 -0.943957
vn -0.956940 0.000000 -0.290286
vn -0.773008 0.000000 -0.634396
vn -0.098014 0.000000 0.995185
vn -0.471394 0.000000 -0.881923
vn -0.471393 0.000000 0.881923
vn -0.098026 0.000000 -0.995184
vn -0.773008 0.000000 0.634396
vn -0.956940 0.000000 0.290286
vn 0.098014 0.000000 -0.995185
vn -0.995185 0.000000 -0.098015
vn 0.316229 0.000000 0.948683
vn -0.881922 0.000000 -0.471395
vn -0.634394 0.000000 -0.773010
vn -0.290283 0.000000 0.956941
vn -0.290295 0.000000 -0.956937
vn -0.634394 0.000000 0.773010
vn 0.000000 -1.000000 0.000012
vn 0.000000 1.000000 -0.000001
vn 0.000000 -1.000000 -0.000001
vn 0.000000 -1.000000 0.000002
vn 0.000000 -1.000000 -0.000002
vn 0.000000 1.000000 -0.000003
vn 0.000000 1.000000 -0.000002
vn 0.000000 1.000000 0.000003
vn 0.000000 1.000000 0.000006
vn 0.000000 1.000000 0.000002
vn 0.000000 1.000000 0.000001
vn -0.995185 0.000000 0.098015
vn 0.330070 0.000000 -0.943956
vn -0.098026 0.000000 0.995184
vn -0.098014 0.000000 -0.995185
vn -0.956941 0.000000 0.290282
vn 0.098027 0.000000 -0.995184
vn -0.995185 0.000000 -0.098014
vn 0.316228 0.000000 0.948683
vn -0.290294 0.000000 0.956937
vn -0.290283 0.000000 -0.956941
usemtl metalDark
s off
f 5/1/1 4/2/1 9/3/1
f 29/4/2 35/5/2 40/6/2
f 12/7/3 32/8/3 31/9/3
f 19/10/4 39/10/4 38/10/4
f 10/11/5 30/12/5 29/13/5
f 20/14/6 40/15/6 38/10/6
f 8/16/7 28/17/7 27/18/7
f 6/19/8 26/20/8 25/21/8
f 17/22/9 37/23/9 36/24/9
f 4/25/10 24/26/10 23/27/10
f 15/28/11 35/29/11 34/30/11
f 2/31/12 22/32/12 21/33/12
f 13/34/13 33/35/13 32/8/13
f 11/36/14 31/9/14 30/12/14
f 1/37/15 21/33/15 40/15/15
f 9/38/16 29/13/16 28/17/16
f 18/39/17 38/40/17 37/23/17
f 7/41/18 27/18/18 26/20/18
f 5/42/19 25/43/19 24/26/19
f 16/44/20 36/24/20 35/29/20
f 3/45/21 23/27/21 22/32/21
f 14/42/22 34/46/22 33/35/22
f 1/47/1 20/48/1 2/49/1
f 16/50/1 9/3/1 20/48/1
f 16/50/1 20/48/1 17/51/1
f 16/50/23 15/52/23 14/53/23
f 12/54/1 11/55/1 13/56/1
f 10/57/1 9/3/1 11/55/1
f 8/58/1 7/59/1 9/3/1
f 6/60/1 5/1/1 7/59/1
f 29/4/24 33/61/24 34/62/24
f 9/3/25 14/53/25 13/56/25
f 20/48/1 18/63/1 17/51/1
f 9/3/25 4/2/25 20/48/25
f 9/3/26 16/50/26 14/53/26
f 23/64/2 40/6/2 22/65/2
f 20/48/1 3/66/1 2/49/1
f 20/48/27 4/2/27 3/66/27
f 7/59/1 5/1/1 9/3/1
f 11/55/1 9/3/1 13/56/1
f 25/67/28 26/68/28 27/69/28
f 27/69/29 28/70/29 29/4/29
f 29/4/30 30/71/30 31/72/30
f 31/72/31 32/73/31 33/61/31
f 35/5/2 29/4/2 34/62/2
f 37/74/2 40/6/2 36/75/2
f 37/74/2 38/76/2 40/6/2
f 29/4/29 31/72/29 33/61/29
f 40/6/32 23/64/32 24/77/32
f 24/77/2 25/67/2 29/4/2
f 18/10/4 19/10/4 38/10/4
f 40/6/2 21/78/2 22/65/2
f 25/67/33 27/69/33 29/4/33
f 11/36/3 12/7/3 31/9/3
f 40/6/2 24/77/2 29/4/2
f 40/6/2 35/5/2 36/75/2
f 9/38/34 10/11/34 29/13/34
f 18/39/35 20/14/35 38/10/35
f 7/41/7 8/16/7 27/18/7
f 5/79/8 6/19/8 25/21/8
f 16/44/36 17/22/36 36/24/36
f 3/45/10 4/25/10 23/27/10
f 14/80/11 15/28/11 34/30/11
f 1/37/37 2/31/37 21/33/37
f 12/7/13 13/34/13 32/8/13
f 10/11/38 11/36/38 30/12/38
f 20/14/39 1/37/39 40/15/39
f 8/16/40 9/38/40 28/17/40
f 17/22/41 18/39/41 37/23/41
f 6/19/18 7/41/18 26/20/18
f 4/25/19 5/42/19 24/26/19
f 15/28/42 16/44/42 35/29/42
f 2/31/43 3/45/43 22/32/43
f 13/34/22 14/42/22 33/35/22
