# Blender v2.70 (sub 0) OBJ File: 'all.blend'
# www.blender.org
mtllib plunger.mtl
o Cylinder.001
v 1.143480 -0.237526 0.256172
v 1.143480 -0.237526 0.555357
v 1.161652 -0.239316 0.256172
v 1.161652 -0.239316 0.555357
v 1.179126 -0.244616 0.256172
v 1.179126 -0.244617 0.555357
v 1.195230 -0.253224 0.256172
v 1.195230 -0.253224 0.555357
v 1.209346 -0.264809 0.256172
v 1.209346 -0.264809 0.555357
v 1.220930 -0.278924 0.256172
v 1.220930 -0.278924 0.555357
v 1.229538 -0.295028 0.256172
v 1.229538 -0.295028 0.555357
v 1.234839 -0.312502 0.256172
v 1.234839 -0.312502 0.555357
v 1.236629 -0.330675 0.256172
v 1.236629 -0.330675 0.555357
v 1.234839 -0.348847 0.256172
v 1.234839 -0.348847 0.555357
v 1.229538 -0.366321 0.256172
v 1.229538 -0.366321 0.555357
v 1.220930 -0.382425 0.256172
v 1.220930 -0.382425 0.555357
v 1.209346 -0.396541 0.256172
v 1.209346 -0.396541 0.555357
v 1.195230 -0.408125 0.256172
v 1.195230 -0.408125 0.555357
v 1.179126 -0.416733 0.256172
v 1.179126 -0.416733 0.555357
v 1.161652 -0.422034 0.256172
v 1.161652 -0.422034 0.555357
v 1.143480 -0.423823 0.256172
v 1.143480 -0.423824 0.555357
v 1.125307 -0.422034 0.256172
v 1.125307 -0.422034 0.555357
v 1.107833 -0.416733 0.256172
v 1.107833 -0.416733 0.555357
v 1.091729 -0.408125 0.256172
v 1.091729 -0.408125 0.555357
v 1.077614 -0.396541 0.256172
v 1.077614 -0.396541 0.555357
v 1.066029 -0.382425 0.256172
v 1.066029 -0.382425 0.555357
v 1.057422 -0.366321 0.256172
v 1.057422 -0.366321 0.555357
v 1.052121 -0.348847 0.256172
v 1.052121 -0.348847 0.555357
v 1.050331 -0.330675 0.256172
v 1.050331 -0.330675 0.555357
v 1.052121 -0.312502 0.256172
v 1.052121 -0.312502 0.555357
v 1.057422 -0.295028 0.256172
v 1.057422 -0.295028 0.555357
v 1.066030 -0.278924 0.256172
v 1.066030 -0.278924 0.555357
v 1.077614 -0.264808 0.256172
v 1.077614 -0.264809 0.555357
v 1.091729 -0.253224 0.256172
v 1.091729 -0.253224 0.555357
v 1.107834 -0.244616 0.256172
v 1.107834 -0.244617 0.555357
v 1.125308 -0.239316 0.256172
v 1.125308 -0.239316 0.555357
vt 0.119900 0.617404
vt 0.085748 0.617404
vt 0.085748 0.000000
vt 0.053576 0.617404
vt 0.053576 0.000000
vt 0.024623 0.617404
vt 0.000000 0.617404
vt 0.000000 0.000000
vt 0.774623 0.617404
vt 0.750000 0.617404
vt 0.750000 0.000000
vt 0.721046 0.617404
vt 0.721046 0.000000
vt 0.688875 0.617404
vt 0.688875 0.000000
vt 0.654722 0.617404
vt 0.654722 0.000000
vt 0.619900 0.617404
vt 0.619900 0.000000
vt 0.585748 0.617404
vt 0.585747 0.000000
vt 0.553576 0.617404
vt 0.553576 0.000000
vt 0.524623 0.617404
vt 0.774623 0.000000
vt 0.803576 0.000000
vt 0.803576 0.617404
vt 0.835747 0.000000
vt 0.835747 0.617404
vt 0.869900 0.000000
vt 0.904722 0.000000
vt 0.904722 0.617404
vt 0.938875 0.000000
vt 0.971046 0.000000
vt 0.971047 0.617404
vt 1.000000 0.000000
vt 1.000000 0.617404
vt 0.274623 0.617404
vt 0.274623 0.000000
vt 0.299246 0.000000
vt 0.328199 0.000000
vt 0.328199 0.617404
vt 0.360370 0.000000
vt 0.360370 0.617404
vt 0.394523 0.000000
vt 0.394523 0.617404
vt 0.429345 0.000000
vt 0.463498 0.000000
vt 0.463498 0.617404
vt 0.495669 0.000000
vt 0.524623 0.000000
vt 0.250000 0.617404
vt 0.250000 0.000000
vt 0.221046 0.617404
vt 0.221046 0.000000
vt 0.188875 0.617404
vt 0.188875 0.000000
vt 0.502963 0.992649
vt 0.367664 0.978228
vt 0.588711 0.686757
vt 0.154722 0.617404
vt 0.119901 0.000000
vt 0.154722 0.000000
vt 0.974936 0.752903
vt 0.822364 1.000000
vt 0.692264 0.660111
vt 0.024623 0.000000
vt 0.869900 0.617404
vt 0.938875 0.617404
vt 0.299246 0.617404
vt 0.429345 0.617404
vt 0.495669 0.617404
vt 0.274623 0.789861
vt 0.294742 0.899315
vt 0.274623 0.827543
vt 0.281416 0.752903
vt 0.294742 0.718089
vt 0.314088 0.686757
vt 0.338711 0.660111
vt 0.367664 0.639176
vt 0.399836 0.624756
vt 0.433988 0.617404
vt 0.468810 0.617404
vt 0.535135 0.639176
vt 0.502963 0.624756
vt 0.564088 0.660111
vt 0.314088 0.930647
vt 0.628176 0.827543
vt 0.608057 0.718089
vt 0.628176 0.789861
vt 0.621383 0.864502
vt 0.608057 0.899316
vt 0.564088 0.957293
vt 0.588711 0.930648
vt 0.535134 0.978228
vt 0.468810 1.000000
vt 0.433988 1.000000
vt 0.399835 0.992648
vt 0.338711 0.957293
vt 0.281416 0.864501
vt 0.621383 0.752903
vt 0.917641 0.660112
vt 0.961610 0.718089
vt 0.981729 0.827543
vt 0.942264 0.930647
vt 0.981729 0.789861
vt 0.961610 0.899316
vt 0.974936 0.864502
vt 0.787542 1.000000
vt 0.753389 0.992649
vt 0.856516 0.992649
vt 0.888688 0.978228
vt 0.888688 0.639176
vt 0.721218 0.978228
vt 0.692264 0.957293
vt 0.667641 0.930647
vt 0.648295 0.899316
vt 0.634969 0.752903
vt 0.648295 0.718089
vt 0.667641 0.686757
vt 0.753389 0.624756
vt 0.787542 0.617404
vt 0.721218 0.639176
vt 0.634969 0.864502
vt 0.917641 0.957293
vt 0.822364 0.617404
vt 0.856517 0.624756
vt 0.942264 0.686757
vn 0.098016 0.995185 0.000000
vn 0.290284 0.956941 0.000000
vn 0.471398 0.881921 0.000000
vn 0.634389 0.773014 0.000000
vn 0.773011 0.634393 0.000000
vn 0.881921 0.471396 0.000000
vn 0.956940 0.290286 0.000000
vn 0.995185 0.098017 0.000000
vn 0.995185 -0.098017 -0.000000
vn 0.956937 -0.290297 -0.000000
vn 0.881922 -0.471395 -0.000000
vn 0.773010 -0.634394 -0.000001
vn 0.634396 -0.773009 -0.000000
vn 0.471396 -0.881922 -0.000001
vn 0.290285 -0.956940 -0.000001
vn 0.098018 -0.995185 -0.000001
vn -0.098016 -0.995185 -0.000001
vn -0.290286 -0.956940 -0.000001
vn -0.471399 -0.881920 -0.000000
vn -0.634396 -0.773009 -0.000000
vn -0.773010 -0.634394 -0.000001
vn -0.881922 -0.471395 -0.000000
vn -0.956943 -0.290277 -0.000000
vn -0.995185 -0.098017 -0.000000
vn -0.995185 0.098017 0.000000
vn -0.956940 0.290286 0.000000
vn -0.881922 0.471396 0.000000
vn -0.773011 0.634393 0.000000
vn -0.634389 0.773014 0.000000
vn -0.471395 0.881922 0.000001
vn 0.000001 -0.000002 1.000000
vn -0.098015 0.995185 0.000001
vn -0.290280 0.956942 0.000001
vn -0.000000 0.000001 -1.000000
vn 0.098020 0.995184 0.000001
vn 0.290283 0.956941 0.000001
vn 0.471396 0.881922 0.000001
vn 0.634395 0.773009 0.000000
vn 0.773010 0.634394 0.000000
vn 0.881926 0.471387 0.000000
vn 0.956940 0.290287 0.000000
vn 0.956940 -0.290286 -0.000000
vn 0.881926 -0.471387 -0.000000
vn 0.773011 -0.634393 -0.000000
vn 0.634389 -0.773014 -0.000001
vn 0.471397 -0.881921 -0.000001
vn 0.290286 -0.956940 -0.000000
vn 0.098015 -0.995185 -0.000001
vn -0.098016 -0.995185 -0.000000
vn -0.290283 -0.956941 -0.000001
vn -0.471399 -0.881920 -0.000001
vn -0.634391 -0.773012 -0.000000
vn -0.773011 -0.634393 -0.000000
vn -0.881917 -0.471404 -0.000000
vn -0.956940 -0.290286 -0.000000
vn -0.956940 0.290287 0.000000
vn -0.881918 0.471403 0.000000
vn -0.773010 0.634394 0.000000
vn -0.634395 0.773009 0.000000
vn -0.471396 0.881922 0.000000
vn 0.000000 0.000000 1.000000
vn 0.000007 0.000000 1.000000
vn 0.000014 -0.000015 1.000000
vn 0.000000 -0.000005 1.000000
vn 0.000000 -0.000006 1.000000
vn 0.000029 0.000000 1.000000
vn 0.000010 0.000006 1.000000
vn 0.000005 0.000021 1.000000
vn -0.000007 0.000032 1.000000
vn -0.000029 0.000000 1.000000
vn -0.000029 0.000002 1.000000
vn -0.290288 0.956939 0.000000
vn -0.000003 0.000004 1.000000
vn 0.000000 0.000002 1.000000
vn 0.000000 -0.000001 1.000000
vn -0.000001 0.000000 1.000000
vn -0.000005 0.000000 1.000000
vn -0.000007 -0.000002 1.000000
vn 0.000000 -0.000004 1.000000
vn 0.000005 0.000000 1.000000
vn -0.000005 -0.000001 1.000000
vn -0.000001 0.000017 -1.000000
vn 0.000005 0.000000 -1.000000
vn -0.000014 0.000000 -1.000000
vn 0.000000 0.000000 -1.000000
vn -0.000029 0.000005 -1.000000
vn 0.000005 -0.000006 -1.000000
vn 0.000004 0.000000 -1.000000
vn 0.000014 0.000015 -1.000000
vn 0.000014 0.000000 -1.000000
vn 0.000057 -0.000002 -1.000000
vn -0.000003 0.000000 -1.000000
vn -0.000004 0.000000 -1.000000
vn -0.000057 -0.000002 -1.000000
vn 0.000007 0.000002 -1.000000
vn 0.000000 0.000002 -1.000000
vn 0.000000 0.000004 -1.000000
vn -0.000024 0.000003 -1.000000
vn -0.000002 0.000000 -1.000000
vn 0.000004 -0.000016 -1.000000
vn -0.000001 0.000003 -1.000000
vn 0.000003 0.000002 -1.000000
usemtl Material.001
s off
f 2/1/1 4/2/1 3/3/1
f 4/2/2 6/4/2 5/5/2
f 5/5/3 6/4/3 8/6/3
f 8/6/4 10/7/4 9/8/4
f 10/9/5 12/10/5 11/11/5
f 12/10/6 14/12/6 13/13/6
f 14/12/7 16/14/7 15/15/7
f 16/14/8 18/16/8 17/17/8
f 18/16/9 20/18/9 19/19/9
f 20/18/10 22/20/10 21/21/10
f 21/21/11 22/20/11 24/22/11
f 23/23/12 24/22/12 26/24/12
f 26/25/13 28/26/13 27/27/13
f 27/27/14 28/26/14 30/28/14
f 29/29/15 30/28/15 32/30/15
f 32/30/16 34/31/16 33/32/16
f 33/32/17 34/31/17 36/33/17
f 36/33/18 38/34/18 37/35/18
f 38/34/19 40/36/19 39/37/19
f 39/38/20 40/39/20 42/40/20
f 42/40/21 44/41/21 43/42/21
f 44/41/22 46/43/22 45/44/22
f 46/43/23 48/45/23 47/46/23
f 47/46/24 48/45/24 50/47/24
f 50/47/25 52/48/25 51/49/25
f 51/49/26 52/48/26 54/50/26
f 54/50/27 56/51/27 55/24/27
f 56/38/28 58/52/28 57/53/28
f 58/52/29 60/54/29 59/55/29
f 60/54/30 62/56/30 61/57/30
f 22/58/31 14/59/31 42/60/31
f 64/61/32 2/1/32 1/62/32
f 62/56/33 64/61/33 63/63/33
f 3/64/34 21/65/34 47/66/34
f 1/62/35 2/1/35 3/3/35
f 3/3/36 4/2/36 5/5/36
f 7/67/37 5/5/37 8/6/37
f 7/67/38 8/6/38 9/8/38
f 9/25/39 10/9/39 11/11/39
f 11/11/40 12/10/40 13/13/40
f 13/13/41 14/12/41 15/15/41
f 15/15/8 16/14/8 17/17/8
f 17/17/9 18/16/9 19/19/9
f 19/19/42 20/18/42 21/21/42
f 23/23/43 21/21/43 24/22/43
f 25/51/44 23/23/44 26/24/44
f 25/9/45 26/25/45 27/27/45
f 29/29/46 27/27/46 30/28/46
f 31/68/47 29/29/47 32/30/47
f 31/68/48 32/30/48 33/32/48
f 35/69/49 33/32/49 36/33/49
f 35/69/50 36/33/50 37/35/50
f 37/35/51 38/34/51 39/37/51
f 41/70/52 39/38/52 42/40/52
f 41/70/53 42/40/53 43/42/53
f 43/42/54 44/41/54 45/44/54
f 45/44/55 46/43/55 47/46/55
f 49/71/24 47/46/24 50/47/24
f 49/71/25 50/47/25 51/49/25
f 53/72/56 51/49/56 54/50/56
f 53/72/57 54/50/57 55/24/57
f 55/39/58 56/38/58 57/53/58
f 57/53/59 58/52/59 59/55/59
f 59/55/60 60/54/60 61/57/60
f 2/73/61 8/74/61 4/75/61
f 2/73/62 64/76/62 62/77/62
f 62/77/63 60/78/63 58/79/63
f 58/79/61 56/80/61 54/81/61
f 54/81/64 52/82/64 50/83/64
f 46/84/65 42/60/65 48/85/65
f 46/84/66 44/86/66 42/60/66
f 14/59/67 10/87/67 8/74/67
f 34/88/68 40/89/68 36/90/68
f 34/88/69 32/91/69 30/92/69
f 26/93/61 22/58/61 28/94/61
f 26/93/70 24/95/70 22/58/70
f 22/58/71 20/96/71 18/97/71
f 18/97/64 16/98/64 14/59/64
f 14/59/61 12/99/61 10/87/61
f 61/57/72 62/56/72 63/63/72
f 34/88/73 30/92/73 22/58/73
f 62/77/74 58/79/74 54/81/74
f 14/59/75 54/81/75 42/60/75
f 22/58/76 42/60/76 40/89/76
f 22/58/77 30/92/77 28/94/77
f 8/74/62 6/100/62 4/75/62
f 22/58/78 18/97/78 14/59/78
f 54/81/75 14/59/75 8/74/75
f 8/74/75 2/73/75 54/81/75
f 40/89/62 38/101/62 36/90/62
f 40/89/79 34/88/79 22/58/79
f 2/73/75 62/77/75 54/81/75
f 63/63/32 64/61/32 1/62/32
f 42/60/80 50/83/80 48/85/80
f 42/60/81 54/81/81 50/83/81
f 3/64/82 61/102/82 1/103/82
f 7/104/83 13/105/83 5/106/83
f 11/107/84 13/105/84 9/108/84
f 21/65/85 23/109/85 25/110/85
f 19/111/86 21/65/86 17/112/86
f 3/64/85 59/113/85 61/102/85
f 27/114/87 21/65/87 25/110/87
f 27/114/88 29/115/88 31/116/88
f 31/116/34 33/117/34 21/65/34
f 39/90/89 41/118/89 37/88/89
f 43/119/85 47/66/85 41/118/85
f 43/119/90 45/120/90 47/66/90
f 51/121/91 53/122/91 49/123/91
f 13/105/92 3/64/92 5/106/92
f 33/117/93 35/124/93 37/88/93
f 15/125/94 17/112/94 13/105/94
f 17/112/95 21/65/95 13/105/95
f 31/116/96 21/65/96 27/114/96
f 53/122/85 55/126/85 57/127/85
f 57/127/85 59/113/85 3/64/85
f 41/118/97 33/117/97 37/88/97
f 53/122/98 47/66/98 49/123/98
f 13/105/99 7/104/99 9/108/99
f 61/102/100 63/128/100 1/103/100
f 33/117/34 41/118/34 21/65/34
f 3/64/101 47/66/101 53/122/101
f 3/64/102 13/105/102 21/65/102
f 53/122/85 57/127/85 3/64/85
f 47/66/85 21/65/85 41/118/85
