# Blender v2.70 (sub 0) OBJ File: 'all.blend'
# www.blender.org
mtllib table.mtl
o Table_Cube
v 1.250000 -0.443721 -1.983151
v 1.250000 -0.443720 2.016849
v -1.250000 -0.443720 2.016849
v -1.250000 -0.443721 -1.983151
v 1.250001 0.056279 -1.983150
v 1.249999 -0.180000 2.016850
v -1.250000 -0.180000 2.016849
v -1.250000 0.056279 -1.983151
vt 0.588235 1.000000
vt 0.588235 0.000000
vt 0.000000 0.000000
vt 0.823528 0.000000
vt 0.764704 0.000000
vt 0.705882 1.000000
vt 1.000000 0.625000
vt 1.000000 0.000000
vt 0.941176 0.000000
vt 0.588237 0.000000
vt 0.823529 0.625000
vt 0.941176 0.625000
vt 0.000000 1.000000
vt 0.823529 1.000000
vt 0.647061 0.000000
vt 0.823529 0.000000
vn 0.000000 1.000000 -0.000000
vn -1.000000 -0.000002 -0.000000
vn 0.000000 -0.000001 -1.000000
vn 1.000000 0.000001 0.000000
vn -0.000000 -0.000001 1.000000
vn -1.000000 0.000001 -0.000000
vn 0.000001 0.000005 -1.000000
vn 1.000000 0.000002 0.000000
vn -0.000000 -0.000002 1.000000
usemtl table
s off
f 4/1/1 3/2/1 2/3/1
f 2/4/2 6/5/2 5/6/2
f 2/7/3 3/8/3 7/9/3
f 3/10/4 4/1/4 8/6/4
f 8/11/5 4/12/5 1/9/5
f 1/13/1 4/1/1 2/3/1
f 1/14/6 2/4/6 5/6/6
f 6/12/7 2/7/7 7/9/7
f 7/15/8 3/10/8 8/6/8
f 5/16/9 8/11/9 1/9/9
