# Blender v2.70 (sub 0) OBJ File: 'all.blend'
# www.blender.org
mtllib wallRightSide.mtl
o WallSide_Plane.004
v 1.025000 -0.443720 0.289340
v 1.025000 -0.443720 -0.425660
v 0.675000 -0.443720 -0.068160
v 1.025000 -0.443720 0.289340
v 1.025000 -0.443720 -0.425660
v 0.675000 -0.443720 -0.068160
v 1.025000 -0.195610 0.289340
v 1.025000 -0.195609 -0.425660
v 0.675000 -0.195610 -0.068160
vt 1.000000 1.000000
vt 0.668421 1.000000
vt 0.653509 0.588329
vt 0.960526 0.588329
vt 0.653509 0.294165
vt 0.960526 0.000000
vt 0.000000 0.000000
vt 0.653509 0.000000
vt 0.653509 0.588918
vt 0.346491 0.294422
vt 0.346491 1.000000
vt 0.028070 0.999999
vt 0.014912 0.588329
vt 0.346491 0.000000
vt 0.346491 0.588329
vt 0.000000 0.588329
vt 1.000000 0.588329
vt 0.028070 0.000000
vn -0.714563 0.000000 -0.699571
vn 0.000000 -1.000000 0.000000
vn 0.000000 0.000000 1.000000
vn -0.000002 1.000000 0.000002
vn -0.714562 0.000000 0.699572
vn 1.000000 0.000000 -0.000001
usemtl points
s off
f 6/1/1 9/2/1 8/3/1
f 1/4/2 3/5/2 2/6/2
f 3/7/3 6/7/3 5/7/3
f 2/7/3 5/7/3 4/7/3
f 1/7/3 4/7/3 6/7/3
f 7/8/4 8/9/4 9/10/4
f 4/11/5 7/12/5 9/13/5
f 4/14/6 5/15/6 8/16/6
f 5/17/1 6/1/1 8/3/1
f 2/7/3 3/7/3 5/7/3
f 1/7/3 2/7/3 4/7/3
f 3/7/3 1/7/3 6/7/3
f 6/15/5 4/11/5 9/13/5
f 7/18/6 4/14/6 8/16/6
